<?xml version="1.0" standalone="no"?>
<!DOCTYPE svg PUBLIC "-//W3C//DTD SVG 20010904//EN"
 "http://www.w3.org/TR/2001/REC-SVG-20010904/DTD/svg10.dtd">
<svg version="1.0" xmlns="http://www.w3.org/2000/svg"
 width="260.000000pt" height="260.000000pt" viewBox="0 0 260.000000 260.000000"
 preserveAspectRatio="xMidYMid meet">
<metadata>
Created by potrace 1.11, written by Peter Selinger 2001-2013
</metadata>
<g transform="translate(0.000000,260.000000) scale(0.100000,-0.100000)"
fill="#000000" stroke="none">
<path d="M965 2439 c-27 -5 -86 -10 -130 -12 -64 -2 -85 -7 -105 -24 -14 -12
-71 -45 -127 -73 -57 -29 -103 -56 -103 -61 0 -5 -7 -9 -15 -9 -17 0 -195
-175 -195 -193 0 -6 -14 -32 -30 -57 -17 -25 -40 -65 -51 -90 -67 -144 -75
-176 -60 -223 13 -38 62 -87 87 -87 17 0 16 -11 -19 -180 -19 -92 -22 -137
-22 -355 1 -358 6 -438 33 -475 12 -16 22 -36 22 -45 0 -9 48 -65 107 -124 94
-94 114 -109 157 -120 27 -7 76 -25 108 -41 55 -27 119 -42 328 -75 47 -7 103
-21 124 -30 27 -11 53 -15 80 -11 23 4 127 10 233 15 105 5 197 12 203 16 6 3
36 6 68 6 77 0 127 15 150 44 11 14 39 33 63 44 58 25 169 157 211 252 10 21
23 29 67 39 31 6 75 20 98 31 48 23 123 99 152 156 23 45 51 159 51 205 0 54
-31 161 -56 195 l-25 32 7 213 c8 250 -6 442 -38 538 -38 116 -116 206 -228
262 -35 18 -83 50 -105 71 -74 70 -203 119 -405 153 -109 19 -553 28 -635 13z"/>
</g>
</svg>
